<svg width="416" height="416" viewBox="0 0 416 416" fill="none" xmlns="http://www.w3.org/2000/svg">
<circle cx="208" cy="208" r="208" fill="white"/>
<path d="M163 102.5V83C163 60.9086 180.909 43 203 43H217.5C239.591 43 257.5 60.9086 257.5 83V102.5" stroke="black" stroke-width="10"/>
<path d="M66.4843 322.129L108.819 105H310.534L349.595 321.155C351.368 330.971 343.825 340 333.85 340H81.2071C71.771 340 64.6785 331.391 66.4843 322.129Z" stroke="black" stroke-width="8"/>
<path d="M163.636 269.29C152.332 268.343 143.188 263.726 136.204 255.44C129.22 247.214 125.728 236.56 125.728 223.48C125.728 214.661 127.356 206.819 130.611 199.954C133.866 193.088 138.305 187.702 143.928 183.796C149.55 179.89 156.001 177.937 163.281 177.937C167.957 177.937 172.189 178.825 175.977 180.6C179.705 182.435 183.049 185.009 186.009 188.324C188.909 191.638 191.454 195.574 193.643 200.131C195.833 204.689 197.757 209.719 199.414 215.224L205.273 235.11C207.345 241.916 209.742 248.19 212.464 253.931C215.187 259.731 218.442 264.762 222.23 269.023C225.959 273.344 230.339 276.688 235.369 279.055C240.4 281.482 246.2 282.695 252.77 282.695C262.358 282.695 270.94 280.21 278.516 275.238C286.091 270.326 292.069 263.312 296.449 254.197C300.769 245.142 302.93 234.459 302.93 222.148C302.93 210.43 300.947 200.22 296.982 191.52C293.016 182.879 287.512 176.043 280.469 171.012C273.366 165.981 265.199 163.14 255.966 162.489V173.853C263.482 174.445 269.993 176.842 275.497 181.044C280.942 185.305 285.144 190.958 288.104 198.001C291.063 205.044 292.543 213.093 292.543 222.148C292.543 231.914 290.885 240.526 287.571 247.983C284.197 255.44 279.522 261.27 273.544 265.472C267.566 269.674 260.612 271.776 252.681 271.776C246.289 271.776 240.814 270.266 236.257 267.248C231.7 264.229 227.764 259.761 224.45 253.842C221.135 247.983 218.176 240.703 215.572 232.003L209.18 210.785C204.859 196.58 198.97 185.72 191.513 178.203C184.055 170.746 174.763 167.017 163.636 167.017C154.285 167.017 145.999 169.503 138.778 174.474C131.499 179.446 125.787 186.193 121.644 194.716C117.501 203.298 115.43 212.975 115.43 223.746C115.43 234.577 117.531 244.136 121.733 252.422C125.876 260.708 131.587 267.277 138.867 272.131C146.088 276.984 154.344 279.677 163.636 280.21V269.29Z" fill="black"/>
<path d="M169.177 277.121C170.348 275.95 170.348 274.05 169.177 272.879L150.085 253.787C148.913 252.615 147.014 252.615 145.842 253.787C144.671 254.958 144.671 256.858 145.842 258.029L162.813 275L145.842 291.971C144.671 293.142 144.671 295.042 145.842 296.213C147.014 297.385 148.913 297.385 150.085 296.213L169.177 277.121ZM158 278H167.055V272H158V278Z" fill="black"/>
<path d="M246.879 168.879C245.707 170.05 245.707 171.95 246.879 173.121L265.971 192.213C267.142 193.385 269.042 193.385 270.213 192.213C271.385 191.042 271.385 189.142 270.213 187.971L253.243 171L270.213 154.029C271.385 152.858 271.385 150.958 270.213 149.787C269.042 148.615 267.142 148.615 265.971 149.787L246.879 168.879ZM258.055 168H249V174H258.055V168Z" fill="black"/>
</svg>
