<svg width="416" height="416" viewBox="0 0 416 416" fill="none" xmlns="http://www.w3.org/2000/svg">
<path d="M163 102.5V83C163 60.9086 180.909 43 203 43H217.5C239.591 43 257.5 60.9086 257.5 83V102.5" stroke="black" stroke-width="10"/>
<path d="M63.679 329.363L78 105H335L352.176 329.236C352.62 335.043 348.029 340 342.205 340H73.6586C67.8852 340 63.3112 335.125 63.679 329.363Z" stroke="black" stroke-width="14"/>
<path d="M150.909 277.358C138.359 276.11 128.378 270.569 120.966 260.735C113.553 250.901 109.847 238.535 109.847 223.636C109.847 213.142 111.645 203.894 115.241 195.895C118.838 187.969 123.828 181.731 130.213 177.18C136.525 172.704 143.717 170.465 151.79 170.465C157.734 170.465 162.945 171.75 167.422 174.318C171.899 176.887 175.752 180.336 178.981 184.666C182.137 189.07 184.852 193.913 187.127 199.197C189.402 204.555 191.31 209.949 192.852 215.38L199.677 239.158C201.658 246.351 204.19 253.543 207.273 260.735C210.355 267.927 214.245 274.496 218.942 280.44C223.565 286.458 229.253 291.265 236.005 294.862C242.683 298.531 250.72 300.366 260.114 300.366C272.15 300.366 282.975 297.247 292.589 291.009C302.203 284.77 309.835 275.817 315.487 264.148C321.064 252.479 323.853 238.498 323.853 222.205C323.853 206.867 321.321 193.546 316.257 182.244C311.12 170.942 304.038 162.062 295.011 155.604C285.984 149.145 275.526 145.513 263.636 144.705V165.842C272.517 166.576 280.039 169.511 286.204 174.648C292.369 179.786 297.066 186.464 300.295 194.684C303.451 202.904 305.028 212.077 305.028 222.205C305.028 233.434 303.157 243.415 299.414 252.148C295.598 260.955 290.314 267.854 283.562 272.844C276.737 277.908 268.81 280.44 259.783 280.44C252.151 280.44 245.766 278.459 240.629 274.496C235.418 270.533 231.051 264.992 227.528 257.873C224.006 250.827 220.887 242.644 218.171 233.324L210.245 206.353C204.961 188.666 197.659 174.942 188.338 165.181C179.018 155.42 167.128 150.54 152.67 150.54C140.561 150.54 129.92 153.769 120.746 160.227C111.499 166.759 104.306 175.566 99.169 186.648C93.9583 197.803 91.353 210.316 91.353 224.187C91.353 238.204 93.9216 250.607 99.059 261.396C104.196 272.184 111.278 280.734 120.305 287.045C129.259 293.43 139.46 296.843 150.909 297.283V277.358Z" fill="black"/>
<path d="M175.884 289.828C177.446 288.266 177.446 285.734 175.884 284.172L150.428 258.716C148.866 257.154 146.333 257.154 144.771 258.716C143.209 260.278 143.209 262.81 144.771 264.373L167.399 287L144.771 309.627C143.209 311.19 143.209 313.722 144.771 315.284C146.333 316.846 148.866 316.846 150.428 315.284L175.884 289.828ZM164 291H173.055V283H164V291Z" fill="black"/>
<path d="M237.172 152.172C235.61 153.734 235.61 156.266 237.172 157.828L262.627 183.284C264.19 184.846 266.722 184.846 268.284 183.284C269.846 181.722 269.846 179.19 268.284 177.627L245.657 155L268.284 132.373C269.846 130.81 269.846 128.278 268.284 126.716C266.722 125.154 264.19 125.154 262.627 126.716L237.172 152.172ZM249.055 151H240V159H249.055V151Z" fill="black"/>
<line x1="247" y1="155.385" x2="265" y2="155.385" stroke="black" stroke-width="21.23"/>
<path d="M148 287H169" stroke="black" stroke-width="20"/>
</svg>
